<svg width="40" height="40" viewBox="0 0 40 40" fill="none" xmlns="http://www.w3.org/2000/svg">
<circle cx="20" cy="20" r="20" fill="#221D1C"/>
<path d="M20 9C13.9346 9 9 13.9346 9 20C9 26.0654 13.9346 31 20 31C26.0654 31 31 26.0654 31 20C31 13.9346 26.0654 9 20 9ZM27.2729 14.0727C28.5815 15.6715 29.3739 17.7079 29.3946 19.9255C29.0848 19.86 25.9785 19.23 22.8521 19.6231C22.597 19.0003 22.3562 18.4525 22.0264 17.7773C25.5003 16.359 27.0748 14.3406 27.2729 14.0727V14.0727ZM26.2283 12.9862C26.0594 13.2269 24.645 15.1279 21.304 16.3802C19.7644 13.5514 18.0579 11.2275 17.7982 10.8798C20.7778 10.1616 23.9177 10.9361 26.2283 12.9862V12.9862ZM16.0054 11.5114C16.2532 11.8511 17.9321 14.1778 19.4889 16.9452C15.094 18.1123 11.223 18.0955 10.8028 18.09C11.412 15.1744 13.3768 12.7512 16.0054 11.5114ZM10.6043 20.0143C10.6043 19.9183 10.6062 19.8226 10.6091 19.7272C11.0202 19.7356 15.5733 19.7943 20.2654 18.3901C20.5344 18.9165 20.7913 19.4508 21.0272 19.9846C17.6296 20.9416 14.5428 23.6894 13.0197 26.2966C11.5191 24.6309 10.6043 22.4275 10.6043 20.0143ZM14.2329 27.4266C15.2143 25.4203 17.8778 22.8305 21.6658 21.5382C22.9849 24.9661 23.5304 27.839 23.6701 28.6633C20.649 29.9502 17.0162 29.5971 14.2329 27.4266V27.4266ZM25.2497 27.8031C25.1534 27.2316 24.6533 24.4811 23.4244 21.1041C26.3687 20.6328 28.9555 21.4043 29.2769 21.5057C28.8581 24.12 27.3575 26.3778 25.2497 27.8031Z" fill="#FEF9F7"/>
</svg>
