<svg width="40" height="40" viewBox="0 0 40 40" fill="none" xmlns="http://www.w3.org/2000/svg">
<circle cx="20" cy="20" r="20" transform="rotate(90 20 20)" fill="#221D1C"/>
<path d="M20 10C14.5 10 10 14.5 10 20C10 25.5 14.5 30 20 30C25.5 30 30 25.5 30 20C30 14.5 25.5 10 20 10ZM18.0333 11.7333C18.6667 11.6 19.3333 11.5 20 11.5C22.0667 11.5 24.0667 12.2667 25.6333 13.6333L25.9333 13.9L25.9 13.9333C25.7333 14.0666 25.5667 14.2 25.4333 14.3666C24.4333 15.4333 23.0333 16.3333 21.3 17L21 17.1333L20.8667 16.8666C19.3334 14.0333 17.8667 12.2999 17.8334 12.2666L17.4667 11.8666L18.0333 11.7333ZM11.7 18.2333C12.2333 15.7 13.9667 13.4666 16.3333 12.3333L16.5666 12.2333L16.7333 12.4333C16.7333 12.4666 18.2 14.3 19.7333 17.1333L19.9333 17.5L19.5333 17.6C16.1333 18.5667 12.8333 18.6333 12.1333 18.6333C12.0666 18.6333 12.0333 18.6333 12 18.6333H11.6L11.7 18.2333ZM14 26L13.7 25.6667C12.3 24.1333 11.5 22.1 11.5 20C11.5 19.9333 11.5 19.8667 11.5 19.7667V19.4334H11.8333C14.9 19.4667 17.6666 19.0667 20.0333 18.3334L20.3 18.2334L20.4333 18.5C20.6666 18.9667 20.8666 19.4334 21.1 19.8667L21.2667 20.2L20.9 20.3334C18.1 21.2334 15.7333 23.1334 14.2333 25.6334L14 26ZM23.2333 27.8333C22.2 28.2667 21.1 28.4667 20 28.4667C18.1333 28.4667 16.3333 27.8667 14.8667 26.7334L14.6334 26.5667L14.7667 26.3C16.2 23.7667 18.5334 21.9 21.3 21.0333L21.6 20.9333L21.7 21.2333C22.5667 23.4 23.1667 25.5 23.4333 27.4666L23.4666 27.7333L23.2333 27.8333ZM28.3667 21.4667C27.9667 23.7334 26.6334 25.7667 24.7334 27.0667L24.3 27.3667L24.2334 26.8334C23.9667 24.9334 23.5 23.0334 22.8 21.1L22.6667 20.7L23.0667 20.6334C24.7667 20.4 26.5334 20.5334 28.1667 21.0667L28.4334 21.1667L28.3667 21.4667ZM28.0667 20.1667C26.3 19.6667 24.4 19.5667 22.6 19.8667L22.3333 19.9667L22.2333 19.7334C22.0333 19.2334 21.8 18.7 21.5333 18.2L21.3666 17.9L21.7 17.7667C24.8666 16.3667 26.4 14.4 26.4 14.4L26.6 14.6334C27.8 16.1334 28.4666 17.9334 28.5 19.8667V20.3L28.0667 20.1667Z" fill="white"/>
</svg>
