<svg width="40" height="40" viewBox="0 0 40 40" fill="none" xmlns="http://www.w3.org/2000/svg">
<circle cx="20" cy="20" r="20" fill="#221D1C"/>
<path d="M8 13.8333C8 12.2684 9.28701 11 10.875 11H28.125C29.7107 11 31 12.2684 31 13.8333V25.1667C31 26.7294 29.7107 28 28.125 28H10.875C9.28701 28 8 26.7294 8 25.1667V13.8333ZM10.1562 13.8333V14.8117L17.9053 21.0805C18.8307 21.8331 20.1693 21.8331 21.0947 21.0805L28.8438 14.8117V13.7935C28.8438 13.4437 28.5203 13.0852 28.125 13.0852H10.875C10.4779 13.0852 10.1562 13.4437 10.1562 13.7935V13.8333ZM10.1562 17.5609V25.1667C10.1562 25.5562 10.4779 25.875 10.875 25.875H28.125C28.5203 25.875 28.8438 25.5562 28.8438 25.1667V17.5609L22.4648 22.7229C20.7398 24.1174 18.2602 24.1174 16.4947 22.7229L10.1562 17.5609Z" fill="#FEF9F7"/>
</svg>
