<svg width="40" height="40" viewBox="0 0 40 40" fill="none" xmlns="http://www.w3.org/2000/svg">
<circle cx="20" cy="20" r="20" transform="rotate(90 20 20)" fill="#221D1C"/>
<path d="M27.557 13.2114H12.443C11.096 13.2114 10 14.3074 10 15.6544V24.3462C10 25.6932 11.096 26.7891 12.443 26.7891H27.557C28.904 26.7891 30 25.6932 30 24.3462V15.6546C30.0003 14.3074 28.9043 13.2114 27.557 13.2114ZM26.3633 14.8052L20 18.9048L13.6367 14.8052H26.3633ZM27.557 25.1956H12.443C11.9747 25.1956 11.5938 24.8145 11.5938 24.3464V15.6998L19.5083 20.7892C19.519 20.7958 19.5304 20.8003 19.5413 20.8065C19.5527 20.8128 19.5644 20.8189 19.5761 20.8248C19.6374 20.8564 19.7006 20.8819 19.7652 20.8986C19.7718 20.9005 19.7785 20.9013 19.7851 20.9029C19.856 20.9196 19.9278 20.93 19.9995 20.93C19.9997 20.93 20 20.93 20 20.93C20.0005 20.93 20.0008 20.93 20.0011 20.93C20.0728 20.93 20.1445 20.9199 20.2154 20.9029C20.2221 20.9013 20.2287 20.9005 20.2353 20.8986C20.2999 20.8819 20.3628 20.8564 20.4245 20.8248C20.4362 20.8189 20.4478 20.8128 20.4593 20.8065C20.4702 20.8003 20.4816 20.7958 20.4922 20.7892L28.4068 15.6998V24.3462C28.4065 24.8145 28.0253 25.1956 27.557 25.1956Z" fill="white"/>
</svg>
