<svg width="40" height="40" viewBox="0 0 40 40" fill="none" xmlns="http://www.w3.org/2000/svg">
<circle cx="20" cy="20" r="20" fill="#221D1C"/>
<path d="M28 24.1071C27.9225 24.5871 27.3913 29.0179 27.3138 30C22.0952 29.8081 17.5789 29.7883 11 30V28.8616C13.0124 28.4621 13.684 28.5036 13.7005 27.2879C13.7799 24.0593 13.8565 16.3887 13.7005 12.9129C13.655 11.6424 13.1635 11.7181 11 11.3058V10.1674C14.271 10.2727 22.3304 10.5492 27.0703 10C26.9153 11.7076 26.7272 15.6473 26.7272 15.6473H25.6979C25.2086 13.735 24.8674 11.6071 23.2741 11.6071H17.209C16.7552 11.6071 16.7331 11.7634 16.7331 12.0424V19.3527C19.3008 19.375 20.651 19.2411 20.651 19.2411C21.969 19.1986 21.8711 18.8615 22.4551 16.3281H23.5951C23.4 20.8527 23.422 19.0883 23.5176 23.4821H22.3776C21.9723 21.6925 21.9763 20.7569 20.6289 20.7366C20.6289 20.7366 19.677 20.6473 16.733 20.6473V26.8526C16.733 28.0133 17.3639 28.5602 18.692 28.5602H22.6432C25.4604 28.5602 25.5901 27.4443 27.015 24.1071H28V24.1071Z" fill="#FEF9F7"/>
</svg>
