<svg width="40" height="40" viewBox="0 0 40 40" fill="none" xmlns="http://www.w3.org/2000/svg">
<circle cx="20" cy="20" r="20" transform="rotate(90 20 20)" fill="#221D1C"/>
<path d="M20.0008 10C17.2826 10 16.9439 10.0131 15.8801 10.0581C14.812 10.1106 14.0895 10.2763 13.452 10.5237C12.7945 10.7812 12.2345 11.1231 11.6814 11.6794C11.1245 12.2325 10.7795 12.7925 10.5258 13.45C10.2783 14.0875 10.1126 14.81 10.0601 15.8781C10.012 16.9425 10.002 17.2806 10.002 19.9988C10.002 22.7169 10.0151 23.0556 10.0601 24.1194C10.1126 25.1844 10.2783 25.91 10.5258 26.5475C10.7833 27.205 11.1251 27.765 11.6814 28.3181C12.2345 28.875 12.7945 29.22 13.452 29.4738C14.0895 29.7181 14.8151 29.8869 15.8801 29.9394C16.9445 29.9875 17.2826 29.9975 20.0008 29.9975C22.7189 29.9975 23.0576 29.9844 24.1214 29.9394C25.1864 29.8869 25.912 29.7175 26.5495 29.4738C27.207 29.2163 27.767 28.8744 28.3201 28.3181C28.877 27.765 29.222 27.2081 29.4758 26.5475C29.7201 25.91 29.8889 25.1844 29.9414 24.1194C29.9895 23.055 29.9995 22.7169 29.9995 19.9988C29.9995 17.2806 29.9864 16.9419 29.9414 15.8781C29.8889 14.8131 29.7195 14.0838 29.4758 13.45C29.2183 12.7925 28.8764 12.2325 28.3201 11.6794C27.767 11.1225 27.2101 10.7775 26.5495 10.5237C25.912 10.2763 25.1864 10.1106 24.1214 10.0581C23.057 10.01 22.7189 10 20.0008 10V10ZM20.0008 11.8C22.6701 11.8 22.9889 11.8131 24.0439 11.8581C25.017 11.9038 25.547 12.0663 25.8989 12.2038C26.3683 12.3856 26.6964 12.6006 27.0514 12.9519C27.3995 13.3 27.6145 13.6319 27.7964 14.1012C27.9339 14.4531 28.0964 14.9831 28.142 15.9562C28.187 17.0112 28.2001 17.3306 28.2001 19.9994C28.2001 22.6681 28.187 22.9875 28.1383 24.0425C28.0858 25.0156 27.9233 25.5456 27.7864 25.8975C27.597 26.3669 27.3858 26.695 27.037 27.05C26.6851 27.3981 26.3501 27.6131 25.8845 27.795C25.537 27.9325 24.9995 28.095 24.0226 28.1406C22.962 28.1856 22.6495 28.1988 19.9733 28.1988C17.297 28.1988 16.9851 28.1856 15.9233 28.1369C14.9501 28.0844 14.4133 27.9219 14.0614 27.785C13.5864 27.5956 13.2608 27.3844 12.912 27.0356C12.5601 26.6837 12.3364 26.3488 12.1639 25.8831C12.0239 25.5356 11.8639 24.9981 11.812 24.0213C11.7764 22.9731 11.7595 22.6481 11.7595 19.9844C11.7595 17.3219 11.7764 16.9963 11.812 15.935C11.8639 14.9581 12.0239 14.4219 12.1639 14.0731C12.3364 13.5975 12.5608 13.2725 12.912 12.9206C13.2601 12.5725 13.5864 12.3475 14.0614 12.1712C14.4133 12.0344 14.937 11.8719 15.9139 11.8231C16.9745 11.785 17.287 11.7713 19.9595 11.7713L20.0008 11.8ZM20.0008 14.8669C17.1626 14.8669 14.8676 17.165 14.8676 20C14.8676 22.8381 17.1658 25.1331 20.0008 25.1331C22.8389 25.1331 25.1339 22.835 25.1339 20C25.1339 17.1619 22.8358 14.8669 20.0008 14.8669V14.8669ZM20.0008 23.3331C18.1583 23.3331 16.6676 21.8425 16.6676 20C16.6676 18.1575 18.1583 16.6669 20.0008 16.6669C21.8433 16.6669 23.3339 18.1575 23.3339 20C23.3339 21.8425 21.8433 23.3331 20.0008 23.3331V23.3331ZM26.5408 14.6619C26.5408 15.3263 26.0001 15.8625 25.3389 15.8625C24.6745 15.8625 24.1383 15.3256 24.1383 14.6619C24.1383 14.0013 24.6783 13.4637 25.3389 13.4637C25.9995 13.4637 26.5408 14.0013 26.5408 14.6619V14.6619Z" fill="white"/>
</svg>
