<svg width="40" height="40" viewBox="0 0 40 40" fill="none" xmlns="http://www.w3.org/2000/svg">
<circle cx="20" cy="20" r="20" fill="#221D1C"/>
<path d="M19.5023 14.8723C16.5228 14.8723 14.1194 17.1617 14.1194 20C14.1194 22.8383 16.5228 25.1277 19.5023 25.1277C22.4819 25.1277 24.8853 22.8383 24.8853 20C24.8853 17.1617 22.4819 14.8723 19.5023 14.8723ZM19.5023 23.3337C17.5769 23.3337 16.0027 21.8387 16.0027 20C16.0027 18.1613 17.5722 16.6663 19.5023 16.6663C21.4325 16.6663 23.002 18.1613 23.002 20C23.002 21.8387 21.4278 23.3337 19.5023 23.3337V23.3337ZM26.361 14.6625C26.361 15.3275 25.7988 15.8585 25.1055 15.8585C24.4074 15.8585 23.8499 15.323 23.8499 14.6625C23.8499 14.002 24.4121 13.4665 25.1055 13.4665C25.7988 13.4665 26.361 14.002 26.361 14.6625ZM29.9262 15.8764C29.8466 14.2742 29.4624 12.8551 28.2303 11.6858C27.0028 10.5166 25.5131 10.1506 23.8312 10.0703C22.0978 9.97657 16.9022 9.97657 15.1688 10.0703C13.4916 10.1462 12.0018 10.5121 10.7697 11.6814C9.53759 12.8506 9.15811 14.2698 9.07379 15.8719C8.9754 17.5232 8.9754 22.4724 9.07379 24.1236C9.15343 25.7258 9.53759 27.1449 10.7697 28.3142C12.0018 29.4834 13.4869 29.8494 15.1688 29.9297C16.9022 30.0234 22.0978 30.0234 23.8312 29.9297C25.5131 29.8538 27.0028 29.4879 28.2303 28.3142C29.4577 27.1449 29.8419 25.7258 29.9262 24.1236C30.0246 22.4724 30.0246 17.5276 29.9262 15.8764V15.8764ZM27.6868 25.8953C27.3214 26.7701 26.614 27.4439 25.6911 27.7965C24.309 28.3186 21.0296 28.1981 19.5023 28.1981C17.9751 28.1981 14.691 28.3142 13.3136 27.7965C12.3954 27.4484 11.688 26.7745 11.3178 25.8953C10.7697 24.5788 10.8962 21.4549 10.8962 20C10.8962 18.5451 10.7744 15.4167 11.3178 14.1047C11.6833 13.2299 12.3907 12.5561 13.3136 12.2035C14.6956 11.6814 17.9751 11.8019 19.5023 11.8019C21.0296 11.8019 24.3137 11.6858 25.6911 12.2035C26.6093 12.5516 27.3167 13.2255 27.6868 14.1047C28.235 15.4212 28.1085 18.5451 28.1085 20C28.1085 21.4549 28.235 24.5833 27.6868 25.8953Z" fill="#FEF9F7"/>
</svg>
