<svg width="40" height="40" viewBox="0 0 40 40" fill="none" xmlns="http://www.w3.org/2000/svg">
<circle cx="20" cy="20" r="20" transform="rotate(90 20 20)" fill="#221D1C"/>
<path d="M14.6657 16.4263H10.6418C10.4632 16.4263 10.3185 16.571 10.3185 16.7496V29.6766C10.3185 29.8552 10.4632 29.9999 10.6418 29.9999H14.6657C14.8443 29.9999 14.989 29.8552 14.989 29.6766V16.7496C14.989 16.571 14.8443 16.4263 14.6657 16.4263Z" fill="white"/>
<path d="M12.6553 10C11.1911 10 10 11.1898 10 12.6524C10 14.1155 11.1911 15.3058 12.6553 15.3058C14.1182 15.3058 15.3084 14.1154 15.3084 12.6524C15.3085 11.1898 14.1182 10 12.6553 10Z" fill="white"/>
<path d="M24.9008 16.105C23.2847 16.105 22.09 16.7997 21.3653 17.5891V16.7496C21.3653 16.571 21.2206 16.4263 21.042 16.4263H17.1885C17.0099 16.4263 16.8652 16.571 16.8652 16.7496V29.6766C16.8652 29.8552 17.0099 29.9999 17.1885 29.9999H21.2036C21.3821 29.9999 21.5268 29.8552 21.5268 29.6766V23.2807C21.5268 21.1254 22.1123 20.2858 23.6147 20.2858C25.2509 20.2858 25.3809 21.6318 25.3809 23.3916V29.6766C25.3809 29.8552 25.5256 29.9999 25.7042 29.9999H29.7208C29.8994 29.9999 30.0441 29.8552 30.0441 29.6766V22.5859C30.0441 19.3812 29.433 16.105 24.9008 16.105Z" fill="white"/>
</svg>
