<svg width="40" height="40" viewBox="0 0 40 40" fill="none" xmlns="http://www.w3.org/2000/svg">
<circle cx="20" cy="20" r="20" fill="#221D1C"/>
<path d="M30 18.4319C28.034 18.4367 26.1162 17.8197 24.5176 16.6683V24.6988C24.5171 26.1861 24.0653 27.6378 23.2226 28.8598C22.38 30.0818 21.1867 31.0158 19.8022 31.537C18.4178 32.0581 16.9082 32.1415 15.4754 31.7761C14.0425 31.4107 12.7547 30.6138 11.7841 29.4921C10.8135 28.3703 10.2064 26.9771 10.044 25.4988C9.88153 24.0205 10.1715 22.5275 10.8751 21.2194C11.5787 19.9114 12.6624 18.8507 13.9813 18.1791C15.3002 17.5076 16.7914 17.2572 18.2555 17.4614V21.5004C17.5855 21.2884 16.8661 21.2948 16.1999 21.5187C15.5337 21.7426 14.9549 22.1726 14.5461 22.7473C14.1373 23.3219 13.9194 24.0119 13.9235 24.7186C13.9277 25.4253 14.1536 26.1126 14.5691 26.6824C14.9846 27.2522 15.5685 27.6753 16.2372 27.8913C16.906 28.1073 17.6254 28.1052 18.2929 27.8852C18.9604 27.6652 19.5417 27.2387 19.9538 26.6664C20.366 26.0942 20.5879 25.4055 20.5879 24.6988V9H24.5176C24.5149 9.33392 24.5427 9.66738 24.6007 9.99617V9.99617C24.7372 10.7301 25.0211 11.4284 25.4351 12.0482C25.849 12.6679 26.3843 13.1962 27.0081 13.6007C27.8955 14.1912 28.9361 14.5059 30 14.5057V18.4319Z" fill="#FEF9F7"/>
</svg>
