<svg width="40" height="40" viewBox="0 0 40 40" fill="none" xmlns="http://www.w3.org/2000/svg">
<circle cx="20" cy="20" r="20" transform="rotate(90 20 20)" fill="#221D1C"/>
<path d="M32 19.9311C32 19.8769 32 19.8153 31.9974 19.7439C31.9949 19.5445 31.9897 19.3204 31.9846 19.0816C31.9641 18.3946 31.9281 17.7101 31.8717 17.0649C31.7946 16.1761 31.6817 15.4349 31.5277 14.8784C31.3651 14.2977 31.0466 13.768 30.6038 13.3424C30.1609 12.9168 29.6094 12.6101 29.0044 12.4531C28.2779 12.2659 26.8558 12.1502 24.8536 12.0788C23.9012 12.0443 22.8821 12.0222 21.8631 12.0098C21.5062 12.0049 21.1751 12.0025 20.8773 12H20.1227C19.8249 12.0025 19.4937 12.0049 19.1369 12.0098C18.1179 12.0222 17.0988 12.0443 16.1464 12.0788C14.1442 12.1527 12.7195 12.2684 11.9956 12.4531C11.3904 12.6098 10.8386 12.9163 10.3958 13.342C9.95291 13.7677 9.63445 14.2975 9.47232 14.8784C9.31574 15.4349 9.20536 16.1761 9.12835 17.0649C9.07187 17.7101 9.03594 18.3946 9.0154 19.0816C9.0077 19.3204 9.00513 19.5445 9.00257 19.7439C9.00257 19.8153 9 19.8769 9 19.9311V20.0689C9 20.1231 9 20.1847 9.00257 20.2561C9.00513 20.4555 9.01027 20.6796 9.0154 20.9184C9.03594 21.6054 9.07187 22.2899 9.12835 22.9351C9.20536 23.8239 9.3183 24.5651 9.47232 25.1216C9.80089 26.301 10.7661 27.2318 11.9956 27.5469C12.7195 27.7341 14.1442 27.8498 16.1464 27.9212C17.0988 27.9557 18.1179 27.9778 19.1369 27.9902C19.4937 27.9951 19.8249 27.9975 20.1227 28H20.8773C21.1751 27.9975 21.5062 27.9951 21.8631 27.9902C22.8821 27.9778 23.9012 27.9557 24.8536 27.9212C26.8558 27.8473 28.2805 27.7316 29.0044 27.5469C30.2339 27.2318 31.1991 26.3035 31.5277 25.1216C31.6843 24.5651 31.7946 23.8239 31.8717 22.9351C31.9281 22.2899 31.9641 21.6054 31.9846 20.9184C31.9923 20.6796 31.9949 20.4555 31.9974 20.2561C31.9974 20.1847 32 20.1231 32 20.0689V19.9311ZM30.1518 20.0591C30.1518 20.1108 30.1518 20.1674 30.1492 20.2339C30.1467 20.426 30.1415 20.6377 30.1364 20.8667C30.1184 21.5217 30.0825 22.1767 30.0286 22.7849C29.9593 23.5777 29.8617 24.2278 29.7411 24.6636C29.5819 25.2324 29.1147 25.683 28.5243 25.8332C27.9853 25.9711 26.6273 26.0819 24.7817 26.1484C23.8473 26.1828 22.8411 26.205 21.8374 26.2173C21.4857 26.2222 21.1597 26.2247 20.8671 26.2247H20.1329L19.1626 26.2173C18.1589 26.205 17.1552 26.1828 16.2183 26.1484C14.3727 26.0794 13.0122 25.9711 12.4757 25.8332C11.8853 25.6805 11.4181 25.2324 11.2589 24.6636C11.1383 24.2278 11.0407 23.5777 10.9714 22.7849C10.9175 22.1767 10.8842 21.5217 10.8636 20.8667C10.8559 20.6377 10.8533 20.4235 10.8508 20.2339C10.8508 20.1674 10.8482 20.1083 10.8482 20.0591V19.9409C10.8482 19.8892 10.8482 19.8326 10.8508 19.7661C10.8533 19.574 10.8585 19.3623 10.8636 19.1333C10.8816 18.4783 10.9175 17.8233 10.9714 17.2151C11.0407 16.4223 11.1383 15.7722 11.2589 15.3364C11.4181 14.7676 11.8853 14.317 12.4757 14.1668C13.0147 14.0289 14.3727 13.9181 16.2183 13.8516C17.1527 13.8172 18.1589 13.795 19.1626 13.7827C19.5143 13.7778 19.8403 13.7753 20.1329 13.7753H20.8671L21.8374 13.7827C22.8411 13.795 23.8448 13.8172 24.7817 13.8516C26.6273 13.9206 27.9878 14.0289 28.5243 14.1668C29.1147 14.3195 29.5819 14.7676 29.7411 15.3364C29.8617 15.7722 29.9593 16.4223 30.0286 17.2151C30.0825 17.8233 30.1158 18.4783 30.1364 19.1333C30.1441 19.3623 30.1467 19.5765 30.1492 19.7661C30.1492 19.8326 30.1518 19.8917 30.1518 19.9409V20.0591ZM18.2154 23.2995L24.1708 19.9754L18.2154 16.7005V23.2995Z" fill="white"/>
</svg>
