<svg width="40" height="40" viewBox="0 0 40 40" fill="none" xmlns="http://www.w3.org/2000/svg">
<circle cx="20" cy="20" r="20" fill="#221D1C"/>
<path d="M31.4776 13.8164C31.1901 12.7078 30.3429 11.8347 29.2673 11.5384C27.3177 11 19.5 11 19.5 11C19.5 11 11.6823 11 9.73266 11.5384C8.65706 11.8348 7.80992 12.7078 7.5224 13.8164C7 15.8258 7 20.0182 7 20.0182C7 20.0182 7 24.2106 7.5224 26.22C7.80992 27.3286 8.65706 28.1653 9.73266 28.4616C11.6823 29 19.5 29 19.5 29C19.5 29 27.3177 29 29.2673 28.4616C30.3429 28.1653 31.1901 27.3286 31.4776 26.22C32 24.2106 32 20.0182 32 20.0182C32 20.0182 32 15.8258 31.4776 13.8164V13.8164ZM16.9432 23.8246V16.2118L23.4772 20.0183L16.9432 23.8246V23.8246Z" fill="#FEF9F7"/>
</svg>
